<svg xmlns="http://www.w3.org/2000/svg" viewBox="0 0 1000 1000"><path d="M456.58 21.66c-40.8 5.36-60.91 13.03-76.81 28.92-12.45 12.45-17.05 24.71-17.05 45.97 0 13.22.77 16.47 5.17 24.14 6.7 11.49 13.6 17.24 30.84 25.67 31.41 15.32 67.04 19.15 125.08 13.41 38.5-3.83 79.11-3.26 105.54 1.72 31.41 5.75 69.53 21.84 88.5 37.35l6.51 5.36-8.04 10.15c-8.43 10.73-18.2 28.54-24.33 45.01-7.85 20.88-24.33 29.69-48.65 25.67-6.7-.96-33.71-9.19-60.15-18-26.43-9-55.93-18.01-65.51-20.11-61.68-13.41-121.44-6.7-173.54 19.35-33.14 16.47-68.77 47.31-89.26 77-17.05 24.71-30.65 55.36-38.69 87.15-1.34 5.17-3.06 8.05-4.41 7.28-22.79-9.96-27.97-11.3-46.55-12.26-14.56-.58-22.03 0-30.65 2.49-43.47 12.45-68.18 47.32-65.5 92.14 1.15 19.92 7.66 33.33 23.37 48.46 20.3 19.35 40.99 27.2 72.98 27.2 14.56 0 22.79-.96 34.48-4.41l15.13-4.4 14.56 14.55c10.34 10.34 18.58 16.47 29.69 22.22 28.16 14.37 46.16 19.16 114.54 31.22 21.26 3.64 35.82 8.81 38.69 13.41 3.06 4.98-4.21 16.66-21.84 35.24-10.34 10.92-20.69 23.75-23.18 28.73-8.62 18.2-4.98 41.18 9.19 56.89 15.13 16.86 35.82 24.32 82.36 29.31 28.54 3.25 47.7 9 72.02 21.83 26.82 13.99 41.18 27.97 68.57 66.47 28.73 40.22 49.04 56.12 86.77 68.19 34.09 10.92 64.93 4.21 77.19-16.47 4.02-7.09 4.4-9.2 3.64-30.65-.77-18.2-1.92-26.44-6.13-39.27-16.28-50.95-52.67-91.56-111.86-125.46l-21.05-11.87 13.22-9c101.33-67.42 158.22-163.96 166.45-282.72.96-12.64 2.11-23.56 2.68-24.13.57-.57 4.21.38 8.24 2.11 26.43 10.92 76.24 15.71 104.01 9.77 28.73-6.13 49.99-19.92 57.46-37.35 16.28-37.93 11.49-111.48-9.58-151.32-25.67-48.08-67.81-77.96-123.17-87.35-9.38-1.53-22.6-2.87-29.69-2.87l-12.64-.19-6.32-9.19C757.87 98.3 670.52 46.01 576.28 25.32c-18.58-4.02-28.16-4.79-61.29-5.36-25.08-.41-46.15.17-58.41 1.7zm97.69 40.42c87.54 14.37 178.14 66.66 214.72 123.93 5.17 8.04 11.49 15.9 14.18 17.43 3.06 1.72 13.6 3.26 28.16 4.02 51.14 2.87 86.58 18.58 110.33 48.84 20.88 26.43 26.82 46.74 27.01 93.09.19 28.92-.19 33.33-3.64 40.22-7.66 15.32-36.78 23.75-69.72 19.92-24.52-2.87-37.16-6.51-61.29-18.39-17.81-8.43-23.18-10.34-28.54-9.39-13.98 2.11-18.01 10.92-16.47 36.01 2.3 33.71-4.6 83.51-16.66 122.02-7.85 24.52-25.67 60.14-41.57 82.56-22.6 31.99-59.19 65.89-97.31 90.41-21.84 13.98-23.75 14.37-12.07 2.3 20.69-21.84 34.67-43.1 44.63-68 14.56-36.97 17.62-86 7.85-123.16-4.41-16.67-16.67-41.76-27.97-56.89-18.39-24.9-52.1-51.14-67.81-53.06-7.47-.77-9.19-.19-14.37 4.98-4.41 4.41-5.75 7.47-5.75 13.22 0 9.58 3.83 14.75 17.05 22.99 17.81 11.3 42.14 37.54 50.38 54.21 10.73 21.83 13.6 35.44 13.6 63.21.19 58.23-23.56 101.52-77.77 141.55-19.73 14.75-23.56 19.73-21.64 30.07 1.72 9 8.43 13.79 26.43 18.96 22.22 6.51 48.65 16.85 69.53 27.2C684.52 825 724.93 874.8 728 928.82l.57 10.54-7.66.57c-9.96.96-29.69-4.4-43.1-11.3-17.05-9-27.58-19.54-47.31-47.31-35.82-50.76-63.21-72.4-117.42-92.13-17.05-6.32-20.3-6.9-52.67-10.73-38.69-4.6-54.59-10.34-57.27-21.26-1.72-6.51 1.15-10.54 20.88-30.65 17.43-17.62 25.09-30.46 27.58-46.54 3.45-21.26-4.6-38.5-22.79-49.42-13.02-7.85-24.9-11.3-58.42-16.85-66.85-11.3-93.67-20.88-113.97-41.18-4.21-4.22-9.19-10.92-11.3-15.13-9-17.43-16.86-18.58-47.12-7.66-14.37 5.17-20.11 6.13-33.9 6.32-15.13 0-17.62-.38-29.5-6.51-21.46-11.12-28.36-23.38-25.1-44.07 3.83-25.86 22.03-40.23 50.95-40.23 23.37 0 40.03 9.19 49.04 26.82 5.74 11.3 11.1 15.33 20.11 15.33 13.6 0 21.07-10.54 21.07-30.07 0-22.99 9.58-61.49 20.69-83.9 26.82-54.21 79.11-95.01 138.68-108.61 13.6-3.06 24.33-4.02 45.59-4.21 36.01 0 54.97 3.83 110.33 22.6 62.06 21.26 68.57 22.79 91.56 21.84 22.79-.77 35.63-5.75 50.18-19.16 10.73-9.96 15.13-16.66 23.75-36.97 9-21.07 13.41-27.77 28.54-42.91 19.92-19.92 19.73-27.77-1.15-45.59-58.81-50.18-131.4-70.3-223.73-61.68-15.9 1.53-42.52 2.68-59.38 2.49-27.39-.19-32.18-.77-45.59-4.98-18.58-6.32-28.16-13.03-28.16-20.5 0-19.92 12.64-27.58 56.51-33.71 24.33-3.44 74.71-3.44 95.78.01z"/><path d="M895.22 294.81c-13.41 3.07-20.5 11.88-21.64 26.82-.57 8.62 0 11.68 3.83 17.24 12.45 18.58 40.8 17.05 50.19-2.68 10.53-22.23-8.63-46.94-32.38-41.38zM84.79 158.81c-10.73 4.21-13.79 20.69-5.75 30.07l4.6 5.36h218.74l4.98-5.17c7.66-7.47 7.28-19.54-.96-26.82l-5.94-5.36-105.93.19c-58.03.01-107.64.77-109.74 1.73zM51.46 237.92c-10.54 5.36-12.45 19.16-4.02 28.54l5.55 6.32 73.94.57c66.28.38 74.7.19 80.83-2.68 11.11-5.36 13.79-19.35 5.75-28.92l-4.6-5.36-76.43-.58c-58.8-.19-77.38.19-81.02 2.11zM16.59 319.52c-8.43 7.47-8.81 18.58-.96 26.43l5.17 5.36h142.12l5.75-6.51c4.98-5.55 5.75-7.47 4.79-14.17-.58-4.21-2.87-9.39-5.17-11.68-3.83-3.83-5.75-4.02-74.7-4.6l-70.68-.58-6.32 5.75z"/></svg>